<svg xmlns="http://www.w3.org/2000/svg" xmlns:xlink="http://www.w3.org/1999/xlink" id="Layer_1" x="0" y="0" enable-background="new 0 0 16 16" version="1.1" viewBox="0 0 16 16" xml:space="preserve"><path fill="red" fill-rule="evenodd" d="M7.8,2c0.4-0.4,1-0.4,1.3,0l5.3,5.3c0.4,0.4,0.4,1,0,1.3L9.1,14	c-0.4,0.4-1,0.4-1.3,0c-0.4-0.4-0.4-1,0-1.3L12.5,8L7.8,3.4C7.4,3,7.4,2.4,7.8,2z" clip-rule="evenodd"/><path fill="#24292E" d="M12.2,7.3L12,7.1H9.8h0H2.1C1.6,7.1,1.3,7.5,1.3,8s0.3,0.9,0.8,0.9h7.7h0H12l0.2-0.3	C12.5,8.3,12.5,7.7,12.2,7.3z"/></svg>