<svg xmlns="http://www.w3.org/2000/svg" xmlns:xlink="http://www.w3.org/1999/xlink" id="Layer_1" x="0" y="0" enable-background="new 0 0 718 490" version="1.1" viewBox="0 0 718 490" xml:space="preserve"><rect width="40" height="40" y="168" fill="#72DC8A"/><rect width="40" height="40" x="224" y="68" fill="#F7CF46"/><rect width="40" height="40" x="117" y="258" fill="#FA634E"/><g><rect width="300" height="40" x="56" y="168" fill="#FFF"/><path fill="#FFF" d="M580,0c-44.2,0-80,35.8-80,80v48c0,22.1-17.9,40-40,40h-32v40h32c44.2,0,80-35.8,80-80V80 c0-22.1,17.9-40,40-40h138V0H580z"/><path fill="#FFF" d="M372,148v20v40v34h40v-34v-40v-20c0-44.2-35.8-80-80-80h-52v40h52C354.1,108,372,125.9,372,148z"/><rect width="40" height="176" x="372" y="314" fill="#FFF"/><polygon fill="#FFF" points="646 258 646 298 717 298 718 298 718 258 717 258"/><path fill="#FFF" d="M574,258H428h-16h-40h-16h-41h-30.1c-33.2,0-59.9,26.9-59.9,60v29c0,18.8-15.2,34-34,34s-34-15.2-34-34v-33 h-40v33c0,40.9,33.1,74,74,74s74-33.1,74-74v-29c0-11.1,8.9-20,19.9-20H315h41h16h40h16h146V258z"/><rect width="40" height="86" x="590" y="404" fill="#FFF"/><path fill="#FFF" d="M670,90c-44.2,0-80,35.8-80,80v72v16v40v16v18h40v-18v-16v-40v-16v-72c0-22.1,17.9-40,40-40h47h1V90h-1H670 z"/><path fill="#FFF" d="M630,348h-40h-16h-32c-44.2,0-80,35.8-80,80v62h40v-62c0-22.1,17.9-40,40-40h32h16h40h16h72v-40h-72H630z"/></g></svg>